<svg version="1.2" xmlns="http://www.w3.org/2000/svg" viewBox="0 0 727 804" width="43" height="48">
	<style>
		.s0 { fill: #ffcd01 } 
		.s1 { fill: #2dcc71 } 
		.s2 { fill: #745dc5 } 
		.s3 { fill: #ad186a } 
		.s4 { fill: #f23027 } 
		.s5 { fill: #3598db } 
		.s6 { fill: #ffffff } 
	</style>
	<g id="_Artboards_">
	</g>
	<g id="Objects">
		<g id="&lt;Group&gt;">
			<path id="&lt;Compound Path&gt;" fill-rule="evenodd" class="s0" d="m367.66 715.88c-86.81 0-168.43-33.81-229.81-95.19-61.38-61.38-95.19-143-95.19-229.81 0-86.81 33.81-168.43 95.19-229.81 61.38-61.38 143-95.19 229.81-95.19 86.81 0 168.43 33.81 229.81 95.19 61.38 61.38 95.19 143 95.19 229.81 0 86.81-33.81 168.43-95.19 229.81-61.38 61.38-143 95.19-229.81 95.19zm0-636.86c-171.96 0-311.86 139.9-311.86 311.86 0 171.96 139.9 311.86 311.86 311.86 171.96 0 311.86-139.9 311.86-311.86 0-171.96-139.9-311.86-311.86-311.86z"/>
		</g>
		<g id="&lt;Group&gt;">
			<path id="&lt;Compound Path&gt;" fill-rule="evenodd" class="s1" d="m367.66-96.12c-86.81 0-168.43-33.81-229.81-95.19-61.38-61.38-95.19-143-95.19-229.81 0-86.81 33.81-168.43 95.19-229.81 61.38-61.38 143-95.19 229.81-95.19 86.81 0 168.43 33.81 229.81 95.19 61.38 61.38 95.19 143 95.19 229.81 0 86.81-33.81 168.43-95.19 229.81-61.38 61.38-143 95.19-229.81 95.19zm0-636.86c-171.96 0-311.86 139.9-311.86 311.86 0 171.96 139.9 311.86 311.86 311.86 171.96 0 311.86-139.9 311.86-311.86 0-171.96-139.9-311.86-311.86-311.86z"/>
		</g>
		<g id="&lt;Group&gt;">
			<path id="&lt;Compound Path&gt;" fill-rule="evenodd" class="s2" d="m-532.34 715.88c-86.81 0-168.43-33.81-229.81-95.19-61.38-61.38-95.19-143-95.19-229.81 0-86.81 33.81-168.43 95.19-229.81 61.38-61.38 143-95.19 229.81-95.19 86.81 0 168.43 33.81 229.81 95.19 61.38 61.38 95.19 143 95.19 229.81 0 86.81-33.81 168.43-95.19 229.81-61.38 61.38-143 95.19-229.81 95.19zm0-636.86c-171.96 0-311.86 139.9-311.86 311.86 0 171.96 139.9 311.86 311.86 311.86 171.96 0 311.86-139.9 311.86-311.86 0-171.96-139.9-311.86-311.86-311.86z"/>
		</g>
		<g id="&lt;Group&gt;">
			<path id="&lt;Compound Path&gt;" fill-rule="evenodd" class="s3" d="m-532.34-96.12c-86.81 0-168.43-33.81-229.81-95.19-61.38-61.38-95.19-143-95.19-229.81 0-86.81 33.81-168.43 95.19-229.81 61.38-61.38 143-95.19 229.81-95.19 86.81 0 168.43 33.81 229.81 95.19 61.38 61.38 95.19 143 95.19 229.81 0 86.81-33.81 168.43-95.19 229.81-61.38 61.38-143 95.19-229.81 95.19zm0-636.86c-171.96 0-311.86 139.9-311.86 311.86 0 171.96 139.9 311.86 311.86 311.86 171.96 0 311.86-139.9 311.86-311.86 0-171.96-139.9-311.86-311.86-311.86z"/>
		</g>
		<g id="&lt;Group&gt;">
			<path id="&lt;Compound Path&gt;" fill-rule="evenodd" class="s4" d="m-1432.34 715.88c-86.81 0-168.43-33.81-229.81-95.19-61.38-61.38-95.19-143-95.19-229.81 0-86.81 33.81-168.43 95.19-229.81 61.38-61.38 143-95.19 229.81-95.19 86.81 0 168.43 33.81 229.81 95.19 61.38 61.38 95.19 143 95.19 229.81 0 86.81-33.81 168.43-95.19 229.81-61.38 61.38-143 95.19-229.81 95.19zm0-636.86c-171.96 0-311.86 139.9-311.86 311.86 0 171.96 139.9 311.86 311.86 311.86 171.96 0 311.86-139.9 311.86-311.86 0-171.96-139.9-311.86-311.86-311.86z"/>
		</g>
		<g id="&lt;Group&gt;">
			<g id="&lt;Group&gt;">
				<path id="&lt;Compound Path&gt;" fill-rule="evenodd" class="s5" d="m-1432.34-96.12c-86.81 0-168.43-33.81-229.81-95.19-61.38-61.38-95.19-143-95.19-229.81 0-86.81 33.81-168.43 95.19-229.81 61.38-61.38 143-95.19 229.81-95.19 86.81 0 168.43 33.81 229.81 95.19 61.38 61.38 95.19 143 95.19 229.81 0 86.81-33.81 168.43-95.19 229.81-61.38 61.38-143 95.19-229.81 95.19zm0-636.86c-171.96 0-311.86 139.9-311.86 311.86 0 171.96 139.9 311.86 311.86 311.86 171.96 0 311.86-139.9 311.86-311.86 0-171.96-139.9-311.86-311.86-311.86z"/>
			</g>
		</g>
		<g id="&lt;Group&gt;">
			<g id="&lt;Group&gt;">
				<path id="&lt;Path&gt;" class="s2" d="m-580.79 343h109.99c10.64 0 19.93-7.2 22.6-17.5l13.91-53.73c-2.61-0.38-5.26-0.64-7.98-0.64h-172.14c-1.02 0-2.01 0.1-3.02 0.15l14.04 54.22c2.67 10.3 11.96 17.5 22.6 17.5z"/>
				<path id="&lt;Path&gt;" class="s2" d="m-423.15 618.38h-21.28c-2.32 0-4.2-1.88-4.2-4.2v-49.69c0-2.32 1.88-4.2 4.2-4.2h21.28c2.32 0 4.2 1.88 4.2 4.2v49.69c0 2.32-1.88 4.2-4.2 4.2z"/>
				<path id="&lt;Path&gt;" class="s2" d="m-611.4 618.38h-21.28c-2.32 0-4.2-1.88-4.2-4.2v-49.69c0-2.32 1.88-4.2 4.2-4.2h21.28c2.32 0 4.2 1.88 4.2 4.2v49.69c0 2.32-1.88 4.2-4.2 4.2z"/>
				<path id="&lt;Path&gt;" class="s2" d="m-423.99 274.27l-13.95 53.89c-3.88 14.98-17.4 25.44-32.86 25.44h-42.75v10.05c0 7.8-6.32 14.12-14.12 14.12-7.8 0-14.12-6.32-14.12-14.12v-10.05h-39c-15.47 0-28.98-10.46-32.86-25.44l-14.32-55.29c-24.11 6.06-41.98 27.82-41.98 53.8v200.98c0 30.67 24.86 55.54 55.54 55.54h172.14c30.68 0 55.54-24.87 55.54-55.54v-200.98c0-24.26-15.58-44.83-37.26-52.4z"/>
			</g>
			<path id="&lt;Path&gt;" class="s2" d="m-562.01 260.74h-23.66v-74.52h23.66z"/>
			<path id="&lt;Path&gt;" class="s2" d="m-466.62 262.54h-23.66v-74.52h23.66z"/>
			<path id="&lt;Path&gt;" class="s2" d="m-436.86 193.09h-181.62v-29h181.62z"/>
		</g>
		<g id="&lt;Group&gt;">
			<path id="&lt;Path&gt;" class="s0" d="m254.4 498.28l-62.35-39.43c-3.94-1.7-3.85-4.1-1.57-6.93l13.21-11.28c2.4-1.47 4.95-2.11 7.69-1.36l76.95 13.01 64.12-69.43-149.68-101.26c-3.79-2.23-4.11-4.74-0.2-7.66l21.59-17.23 195.12 54.83 57.64-61.63c19.34-16.73 38.13-24.22 52.56-20.66 7.94 1.96 10.75 4.33 13.21 11.79 4.77 14.63-2.63 34.28-20.12 54.52l-61.63 57.64 54.83 195.12-17.23 21.59c-2.91 3.88-5.43 3.56-7.66-0.2l-101.29-149.65-69.43 64.09 13.01 76.95c0.75 2.71 0.14 5.26-1.36 7.69l-11.27 13.21c-2.81 2.28-5.24 2.37-6.94-1.56l-39.43-62.36q-9.89-9.9-19.77-19.8z"/>
		</g>
		<g id="&lt;Group&gt;">
			<path id="&lt;Path&gt;" class="s1" d="m334.97-555.86c0.4-2.5 1.35-6 3.83-9.22 4.69-6.06 12.23-7.69 43.37-7.59 29.74 0.09 37.1 1.63 41.73 7.59 2.52 3.25 3.44 6.8 3.83 9.22v19.93h23.68v-19.85c-0.76-6.97-3.09-17.53-10.92-26.27-12.73-14.21-31.73-14.36-57.81-14.56-26.73-0.21-47.16-0.37-60.48 14.56-7.89 8.86-10.17 19.52-10.92 26.27v19.85h23.69z"/>
			<g id="&lt;Group&gt;">
				<path id="&lt;Path&gt;" class="s1" d="m498.14-392.54h-235.06v78.84h235.06z"/>
				<path id="&lt;Path&gt;" class="s1" d="m498.14-474.62h-235.06v72.36h235.06z"/>
				<path id="&lt;Path&gt;" class="s1" d="m252.58-392.54h-67.52v78.84h67.52z"/>
				<path id="&lt;Path&gt;" class="s1" d="m579.92-392.54h-72.46v78.84h72.46z"/>
				<path id="&lt;Path&gt;" class="s1" d="m185.06-402.26h67.52v-72.36h-67.52z"/>
				<path id="&lt;Path&gt;" class="s1" d="m579.92-484.34v-17.34c0-15.55-14.19-28.24-31.49-28.24h-40.97v45.58z"/>
				<path id="&lt;Path&gt;" class="s1" d="m185.06-303.98v11.84c0 15.56 13.99 28.25 31.14 28.25h36.38v-40.09z"/>
				<path id="&lt;Path&gt;" class="s1" d="m263.08-303.98v40.09h235.06v-40.09z"/>
				<path id="&lt;Path&gt;" class="s1" d="m507.46-402.26h72.46v-72.36h-72.46z"/>
				<path id="&lt;Path&gt;" class="s1" d="m507.46-303.98v40.12h40.97c17.34 0 31.49-12.72 31.49-28.25v-11.87z"/>
				<path id="&lt;Path&gt;" class="s1" d="m252.58-484.34v-45.58h-36.38c-17.15 0-31.14 12.69-31.14 28.21v17.37z"/>
				<path id="&lt;Path&gt;" class="s1" d="m498.14-484.34v-45.58h-235.06v45.58z"/>
			</g>
		</g>
		<g id="&lt;Group&gt;">
			<g id="&lt;Group&gt;">
				<g id="&lt;Group&gt;">
					<path id="&lt;Compound Path&gt;" fill-rule="evenodd" class="s3" d="m-413.6-536.85c0 81.2-106.19 200.41-110.71 205.45-4.24 4.72-11.65 4.73-15.9 0-4.52-5.04-110.71-124.25-110.71-205.45 0-65.42 53.23-118.66 118.66-118.66 65.43 0 118.66 53.24 118.66 118.66zm-58.96 0.01c0-32.92-26.78-59.71-59.7-59.71-32.92 0-59.7 26.79-59.7 59.7 0 32.92 26.78 59.71 59.7 59.71 32.92 0 59.7-26.78 59.7-59.7z"/>
				</g>
			</g>
			<g id="&lt;Group&gt;">
				<path id="&lt;Compound Path&gt;" fill-rule="evenodd" class="s3" d="m-307.54-240.46h-433.92l74.29-158.08h285.34zm-420.83-8.32h407.72l-66.47-141.44h-274.77z"/>
			</g>
		</g>
		<path id="&lt;Compound Path&gt;" fill-rule="evenodd" class="s4" d="m-1467.8 421.95l-130.5-35.86v-4.41l131.65-36.82 35.97-130.95h4.41l36.7 131.26 132.26 36.36v4.41l-132.06 36.93-36.79 133.87h-4.4l-37.59-134.44zm-146.66-56.36c-0.77 0.07-1.42 0.26-1.92 0.65q-0.8 0.58-1.38 1.68-0.16 0.36-1.88 4.68l-12.72 33.52h-1.11l-10.04-26.43-11.15 26.43h-1.03l-13.41-33.18q-2.02-5.05-2.84-6.13-0.81-1.04-2.72-1.22v-1.04h17.59v1.04q-2.14 0.06-2.83 0.65-0.69 0.58-0.69 1.45 0.01 1.14 1.45 4.87l7.97 19.73 6.44-15.56-1.61-4.21q-1.37-3.56-2.11-4.71c-0.5-0.81-1.07-1.34-1.72-1.69q-0.99-0.51-2.84-0.5v-1.03h19.5v1.03c-1.38 0.04-2.37 0.12-2.95 0.35-0.42 0.11-0.72 0.38-0.99 0.69q-0.35 0.52-0.35 1.15c0 0.46 0.42 1.88 1.34 4.25l7.4 19.23 6.63-17.39q1.02-2.69 1.3-3.72 0.23-0.97 0.23-1.84c0-0.84-0.27-1.45-0.84-1.95q-0.82-0.7-3.18-0.77v-1.03h10.46zm386.85 18.31h0.81q3.85 0 5.63-2.41c1.15-1.61 1.91-3.98 2.22-7.13h1.15v21.27h-1.15c-0.23-2.34-0.73-4.22-1.49-5.71q-1.14-2.24-2.69-2.99c-1.03-0.5-2.49-0.77-4.44-0.77v11.42c0 2.26 0.08 3.6 0.31 4.1q0.27 0.76 1.07 1.23c0.54 0.3 1.38 0.5 2.53 0.5h2.41q5.68 0 9.12-2.65c2.3-1.76 3.95-4.4 4.94-8.01h1.11l-1.83 12.92h-35.06v-1.04h1.26c1.19 0 2.11-0.23 2.84-0.65q0.79-0.41 1.19-1.46c0.23-0.49 0.3-1.76 0.3-3.79v-26.78q0.01-2.77-0.15-3.41c-0.19-0.69-0.58-1.26-1.11-1.61q-1.15-0.85-3.11-0.84h-1.34v-1.04h33.95v12.03h-1.15q-0.86-4.42-2.41-6.32c-1.04-1.26-2.53-2.22-4.41-2.83q-1.66-0.53-6.25-0.54h-4.25zm-188.77 196.17l0.31 13.56h-1.23q-0.86-5.1-4.25-8.2-3.39-3.1-7.36-3.1-3.05-0.01-4.83 1.65-1.79 1.61-1.8 3.75 0.01 1.32 0.65 2.41 0.86 1.38 2.8 2.76c0.96 0.65 3.1 1.84 6.51 3.49q7.14 3.51 9.62 6.63 2.46 3.1 2.45 7.12-0.01 5.12-3.98 8.74-3.98 3.68-10.08 3.68c-1.26 0-2.49-0.16-3.64-0.39-1.15-0.26-2.57-0.72-4.29-1.45q-1.45-0.58-2.38-0.58-0.79-0.01-1.64 0.62-0.86 0.63-1.42 1.84h-1.03v-15.33h1.03q1.32 6.45 5.06 9.85c2.53 2.26 5.21 3.41 8.12 3.41q3.34 0 5.36-1.84 2.01-1.84 2-4.25-0.01-1.44-0.77-2.76c-0.5-0.88-1.26-1.77-2.34-2.57q-1.55-1.2-5.51-3.14c-3.72-1.8-6.36-3.37-7.97-4.64-1.61-1.26-2.84-2.72-3.72-4.29-0.88-1.57-1.3-3.33-1.3-5.21 0-3.26 1.18-5.98 3.56-8.28q3.56-3.4 8.97-3.41c1.3 0 2.6 0.16 3.83 0.46 0.95 0.23 2.07 0.69 3.45 1.35q2.02 0.96 2.83 0.95c0.54 0 0.92-0.15 1.23-0.46q0.45-0.46 0.84-2.3h0.92zm-17.97-427.12l20 25.17v-17.43q0-3.67-1.03-4.98c-0.96-1.19-2.57-1.73-4.83-1.69v-1.07h13.41v1.03q-2.58 0.36-3.49 0.89-0.86 0.51-1.38 1.72-0.51 1.22-0.5 4.1v33.83h-0.99l-27.44-33.87v25.9q0 3.52 1.61 4.79c1.08 0.84 2.3 1.23 3.68 1.23h0.96v1.03h-14.48v-1.03c2.26-0.04 3.79-0.5 4.67-1.38q1.31-1.37 1.3-4.64v-28.73l-0.76-1.08q-1.28-1.66-2.26-2.18-0.99-0.52-2.84-0.58v-1.03zm2.22 230.96h-156.89l125.09 34.36 6.13-5.9 26.21-28zm-30.08-38.09l33.41 34.75 0.31-0.3v-157.09zm72.07 3.95l-24.71 23.75-9.16 9.81 0.38 0.42h157.09zm-38.2 40.61v157.09l34.52-125.55-34.1-31.88z"/>
		<g id="&lt;Group&gt;">
			<g id="&lt;Group&gt;">
				<path id="&lt;Compound Path&gt;" fill-rule="evenodd" class="s5" d="m-1604.87-460.41c0-90.6 70.66-165.07 161-169.85q0.08-0.07 0.15-0.11l16.19 0.05c91.39 3.84 162.87 78.33 162.87 169.91 0 91.58-71.47 166.07-162.86 169.91l-16.34-0.05c-90.35-4.79-161.01-79.25-161.01-169.86zm141.5 154.28c-20.47-18.27-36.73-39.87-48.43-64.31-12.32 5.45-24 12.16-34.79 20 22.6 22.96 51.8 38.48 83.22 44.31zm22.03-80.81c-20 0.91-39.56 4.8-58.21 11.58 13.28 27.39 33.32 51.6 58.21 70.3zm0-61.34l-77.11 0.04c1.26 21.09 5.82 41.52 13.57 60.82 20.33-7.47 41.69-11.73 63.54-12.66zm0-61.85c-23.08-1.01-45.57-5.77-66.94-14.19-6.92 20.17-10.48 41.32-10.59 62.93l77.53-0.05zm120.42 157.64c-11.62-8.12-24.19-14.95-37.43-20.32-11.83 25.57-28.64 48.1-50.06 67.09 33.32-5.66 64.05-22.05 87.49-46.77zm42.62-95.88l-61.4 0.03c-1.22 21.94-5.79 43.25-13.58 63.41 14.56 5.91 28.35 13.46 41.06 22.48 19.83-24.75 31.52-54.36 33.92-85.92zm-71.76-78.57c7.03 21.05 10.65 43.06 10.75 65.46l61.49-0.04c-0.22-32.7-10.4-63.87-29.49-90.36-13.23 10.01-27.6 18.39-42.75 24.94zm-58.36-88.17c23.57 20.98 42.06 47 53.8 75.82 13.87-6.07 27.03-13.77 39.19-22.95-24.09-28.2-56.78-46.74-92.99-52.87zm-19.77 91.97c21.01-0.43 41.62-4.23 61.34-11.29-12.81-31.35-33.92-58.87-61.34-79.95zm0 61.71l75.73-0.05c-0.1-20.72-3.42-41.09-9.87-60.61-21.21 7.61-43.34 11.69-65.86 12.13zm0 61.2c21.41 0.41 42.43 4.01 62.56 10.74 7.26-18.72 11.55-38.49 12.76-58.83l-75.32 0.03zm0 93.81c24.72-19.01 44.47-43.4 57.42-70.92-18.5-6.08-37.79-9.35-57.42-9.75zm-75.36-230.17c19.88 7.85 40.78 12.32 62.21 13.31v-92.46c-27.6 20.74-49.04 48.01-62.21 79.15zm-48.55-27.87c11.3 8.89 23.55 16.48 36.48 22.63 11.69-27.59 29.64-52.58 52.27-72.85-34.22 6.32-65.41 23.93-88.75 50.22zm-39.61 103.12l59.69-0.03c0.1-23.44 4.01-46.35 11.62-68.16-14.17-6.66-27.61-14.97-40.02-24.74-20.29 27.07-31.09 59.12-31.29 92.93zm36.26 101.11c11.87-8.74 24.76-16.21 38.37-22.23-8.37-20.86-13.26-42.96-14.54-65.76l-59.59 0.03c2.5 32.49 14.82 62.81 35.76 87.96z"/>
			</g>
			<g id="&lt;Group&gt;">
				<path id="&lt;Compound Path&gt;" fill-rule="evenodd" class="s6" d="m-1351.71-137.81c-7.67 0-15.3-2.76-21.72-7.98l-2.11-1.72-12.14-14.23-1.2-1.94c-5.29-8.54-7.03-18.33-4.99-27.79l7.4-43.72-17.18-15.86-59.99 88.63c-6.08 9.57-15.6 15.37-26.32 15.97-10.96 0.61-21.32-4.36-28.52-13.64l-23.01-28.83 42.47-151.12-36.44-34.08-1.04-1.2c-21.13-24.45-28.84-49.99-21.69-71.91 5.22-15.83 15.29-25.06 31.74-29.13 14.93-3.67 38.87-2.71 68.28 22.74l1.19 1.04 34.08 36.43 151.11-42.47 28.8 22.98c9.32 7.2 14.3 17.57 13.69 28.55-0.6 10.73-6.42 20.27-16.02 26.34l-88.61 59.95 15.86 17.17 43.76-7.39c9.4-2.03 19.16-0.3 27.68 4.93l1.99 1.23 14.32 12.22 1.76 2.18c6.89 8.55 9.43 19.21 6.96 29.24-2.23 9.02-8.25 16.59-16.73 21.18l-45.13 28.54-10.88 10.89-28.55 45.15c-4.6 8.51-12.2 14.54-21.26 16.74q-3.76 0.91-7.56 0.91zm-81.96-212.99l-17.81 63.37 28.21-41.68-2.1-2.28 6.72-4.54 4.42-6.53 2.22 2.04 41.63-28.17z"/>
			</g>
			<path id="&lt;Path&gt;" class="s5" d="m-1302.32-235.07l49.17-31.09c3.1-1.35 3.03-3.24 1.23-5.47l-10.42-8.9c-1.89-1.16-3.9-1.66-6.06-1.07l-60.69 10.26-50.56-54.75 118.04-79.86c2.99-1.75 3.24-3.74 0.16-6.04l-17.03-13.59-153.87 43.25-45.46-48.6c-15.25-13.2-30.06-19.11-41.44-16.3-6.27 1.55-8.48 3.42-10.42 9.3-3.76 11.53 2.08 27.03 15.87 42.99l48.6 45.46-43.24 153.87 13.58 17.03c2.3 3.05 4.29 2.8 6.04-0.16l79.88-118.02 54.76 50.54-10.26 60.69c-0.6 2.14-0.12 4.14 1.07 6.06l8.89 10.42c2.21 1.8 4.13 1.87 5.47-1.23l31.09-49.18q7.8-7.8 15.6-15.61z"/>
		</g>
	</g>
</svg>