<svg version="1.2" xmlns="http://www.w3.org/2000/svg" viewBox="0 0 543 461" width="120" height="102">
	<defs>
		<linearGradient id="g1" x2="1" gradientUnits="userSpaceOnUse" gradientTransform="matrix(55.275,0,0,133.24,469.639,80.731)">
			<stop offset="0" stop-color="#00639e"/>
			<stop offset=".709" stop-color="#008bbf"/>
			<stop offset=".995" stop-color="#00b6f1"/>
		</linearGradient>
		<linearGradient id="g2" x2="1" gradientUnits="userSpaceOnUse" gradientTransform="matrix(135.878,0,0,48.238,389.242,80.657)">
			<stop offset="0" stop-color="#003e56"/>
			<stop offset=".653" stop-color="#00517b"/>
			<stop offset=".995" stop-color="#008bbf"/>
		</linearGradient>
		<linearGradient id="g3" x2="1" gradientUnits="userSpaceOnUse" gradientTransform="matrix(307.381,0,0,231.449,116.005,195.524)">
			<stop offset=".005" stop-color="#00b6f1"/>
			<stop offset=".566" stop-color="#008bbf"/>
			<stop offset="1" stop-color="#00639e"/>
		</linearGradient>
		<radialGradient id="g4" cx="0" cy="0" r="1" gradientUnits="userSpaceOnUse" gradientTransform="matrix(367.069,0,0,367.069,68.311,186.888)">
			<stop offset=".005" stop-color="#008bbf"/>
			<stop offset=".347" stop-color="#00517b"/>
			<stop offset="1" stop-color="#003e56"/>
		</radialGradient>
	</defs>
	<style>
		.s0 { fill: url(#g1) } 
		.s1 { fill: url(#g2) } 
		.s2 { fill: url(#g3) } 
		.s3 { fill: url(#g4) } 
		.s4 { fill: #00aeef } 
		.s5 { fill: #003e56 } 
		.s6 { fill: #003951 } 
	</style>
	<g id="Camada 1">
		<g id="&lt;Group&gt;">
			<g id="&lt;Group&gt;">
				<path id="&lt;Path&gt;" class="s0" d="m524.91 80.73l-55.27 71.75 21.1 61.49z"/>
			</g>
			<path id="&lt;Path&gt;" class="s1" d="m525.12 80.66l-76.66 48.23-59.22-26.82z"/>
			<g id="&lt;Group&gt;">
				<path id="&lt;Path&gt;" class="s2" d="m116.01 391.92c31.67 22.08 70.17 35.05 111.7 35.05 108.07 0 195.68-87.6 195.68-195.67 0-12.23-1.18-24.17-3.32-35.78-54.25 72.98-185.89 228.16-304.06 196.4z"/>
			</g>
			<path id="&lt;Path&gt;" class="s3" d="m412.18 165.99c-26.89-75.95-99.31-130.36-184.47-130.36-108.07 0-195.67 87.6-195.67 195.67 0 15.2 1.75 29.98 5.03 44.18-14.82 2.26-30.26-12.8-30.26-12.8 10.68 20.04 25.34 33.62 39.83 42.83q0.1 0.26 0.2 0.51c6.3 3.78 13.08 7.17 20.35 10.06 12.72 5.17 23.42 7.26 28.53 8.03 67.54 11.68 168.61-18.72 316.46-158.12z"/>
		</g>
		<g id="&lt;Group&gt;">
			<path id="&lt;Compound Path&gt;" class="s4" d="m-108.42 495.32h-20.58v-10.57h52.65v10.57h-20.58v54.32h-11.49z"/>
			<path id="&lt;Compound Path&gt;" class="s4" d="m-72.27 500.7h11.21v11.03c3.06-7.32 8.71-12.33 17.34-11.96v11.87h-0.65c-9.83 0-16.69 6.39-16.69 19.37v18.63h-11.21z"/>
			<path id="&lt;Compound Path&gt;" fill-rule="evenodd" class="s4" d="m-6.37 549.64v-6.02c-3.34 3.98-8.44 7.04-15.85 7.04-9.27 0-17.43-5.28-17.43-15.11v-0.18c0-10.85 8.44-16.04 19.84-16.04 5.93 0 9.73 0.83 13.53 2.04v-0.93c0-6.76-4.26-10.47-12.05-10.47-5.47 0-9.55 1.2-14 3.06l-3.06-9c5.38-2.41 10.66-4.07 18.64-4.07 14.46 0 21.5 7.6 21.5 20.67v29.01zm0.28-20.49c-2.87-1.11-6.86-1.94-11.22-1.94-7.04 0-11.21 2.87-11.21 7.6v0.19c0 4.63 4.17 7.23 9.45 7.23 7.42 0 12.98-4.18 12.98-10.29z"/>
			<path id="&lt;Compound Path&gt;" class="s4" d="m11.61 500.7h12.05l13.16 35.96 13.25-35.96h11.78l-20.02 49.31h-10.11z"/>
			<path id="&lt;Compound Path&gt;" fill-rule="evenodd" class="s4" d="m65.92 525.35v-0.18c0-14 9.92-25.49 23.92-25.49 15.57 0 23.45 12.23 23.45 26.32 0 1.02-0.09 2.04-0.19 3.15h-35.96c1.2 7.98 6.86 12.43 14.09 12.43 5.47 0 9.36-2.04 13.25-5.84l6.58 5.84c-4.63 5.56-11.03 9.17-20.02 9.17-14.18 0-25.12-10.29-25.12-25.4zm36.24-3.61c-0.74-7.23-5-12.88-12.42-12.88-6.86 0-11.68 5.28-12.7 12.88z"/>
			<path id="&lt;Compound Path&gt;" class="s4" d="m125.24 481.97h11.22v67.67h-11.22z"/>
			<path id="&lt;Compound Path&gt;" class="s5" d="m148.97 517.38v-0.18c0-18.45 13.9-33.56 33.83-33.56 12.24 0 19.56 4.08 25.58 10.01l-9.08 10.48c-5-4.54-10.1-7.32-16.59-7.32-10.94 0-18.82 9.08-18.82 20.2v0.19c0 11.12 7.69 20.39 18.82 20.39 7.41 0 11.96-2.97 17.05-7.6l9.09 9.18c-6.68 7.13-14.09 11.58-26.61 11.58-19.09 0-33.27-14.74-33.27-33.37z"/>
			<path id="&lt;Compound Path&gt;" fill-rule="evenodd" class="s5" d="m215.42 525.08v-0.19c0-14.27 11.5-25.86 26.98-25.86 15.38 0 26.79 11.4 26.79 25.68v0.18c0 14.28-11.5 25.86-26.98 25.86-15.39 0-26.79-11.4-26.79-25.67zm39.86 0v-0.19c0-7.32-5.28-13.72-13.07-13.72-8.06 0-12.88 6.21-12.88 13.54v0.18c0 7.32 5.28 13.72 13.07 13.72 8.06 0 12.88-6.21 12.88-13.53z"/>
			<path id="&lt;Compound Path&gt;" class="s5" d="m279.38 499.96h14.09v7.04c3.24-4.17 7.5-7.97 14.64-7.97 6.49 0 11.4 2.87 14 7.88 4.36-5.1 9.55-7.88 16.31-7.88 10.48 0 16.78 6.3 16.78 18.26v32.35h-14.09v-27.71c0-6.68-2.96-10.11-8.25-10.11-5.28 0-8.53 3.43-8.53 10.11v27.71h-14.09v-27.71c0-6.68-2.96-10.11-8.25-10.11-5.28 0-8.52 3.43-8.52 10.11v27.71h-14.09z"/>
			<path id="&lt;Compound Path&gt;" fill-rule="evenodd" class="s5" d="m367.43 499.96h14.09v7.13c3.43-4.63 8.15-8.06 15.48-8.06 11.58 0 22.62 9.08 22.62 25.68v0.18c0 16.59-10.85 25.68-22.62 25.68-7.51 0-12.15-3.43-15.48-7.42v21.32h-14.09zm38.1 24.94v-0.19c0-8.25-5.57-13.72-12.15-13.72-6.58 0-12.05 5.47-12.05 13.72v0.19c0 8.25 5.47 13.72 12.05 13.72 6.58 0 12.15-5.38 12.15-13.72z"/>
			<path id="&lt;Compound Path&gt;" fill-rule="evenodd" class="s5" d="m427.02 535.37v-0.19c0-10.84 8.25-15.85 20.03-15.85 5 0 8.62 0.83 12.14 2.04v-0.83c0-5.85-3.61-9.09-10.66-9.09-5.38 0-9.18 1.02-13.72 2.69l-3.52-10.75c5.47-2.41 10.84-3.99 19.28-3.99 7.69 0 13.26 2.04 16.78 5.56 3.7 3.71 5.37 9.18 5.37 15.85v28.83h-13.62v-5.37c-3.43 3.8-8.16 6.3-15.02 6.3-9.36 0-17.06-5.38-17.06-15.2zm32.36-3.25v-2.5c-2.41-1.11-5.57-1.86-9-1.86-6.02 0-9.73 2.42-9.73 6.86v0.19c0 3.8 3.15 6.03 7.69 6.03 6.59 0 11.04-3.62 11.04-8.72z"/>
			<path id="&lt;Compound Path&gt;" class="s5" d="m484.86 499.96h14.09v7.04c3.25-4.17 7.42-7.97 14.55-7.97 10.67 0 16.88 7.04 16.88 18.45v32.16h-14.09v-27.71c0-6.68-3.16-10.11-8.53-10.11-5.38 0-8.81 3.43-8.81 10.11v27.71h-14.09z"/>
			<path id="&lt;Compound Path&gt;" class="s5" d="m540.56 561.32l4.73-10.2c1.85 1.12 4.17 1.95 6.03 1.95 2.41 0 3.7-0.74 4.91-3.24l-19.47-49.87h14.93l11.31 33.83 10.84-33.83h14.65l-19.1 50.89c-3.8 10.1-7.88 13.9-16.31 13.9-5.1 0-8.9-1.3-12.52-3.43z"/>
		</g>
		<g id="&lt;Group&gt;">
			<path id="&lt;Compound Path&gt;" class="s6" d="m-88.85 603.69v-19.23h-4.28v-1.62h4.28v-9.39h1.78v9.39h10.17v1.62h-10.17v19.06c0 4.12 2.17 6.18 5.84 6.18q2.07 0 4.22-1v1.72c-1.39 0.67-2.83 0.94-4.39 0.94-4.5 0-7.45-2.61-7.45-7.67z"/>
			<path id="&lt;Compound Path&gt;" fill-rule="evenodd" class="s6" d="m-60.22 602.97v-0.11c0-5.84 5.28-9.01 12.4-9.01 3.89 0 7.28 0.67 10 1.56v-1.89c0-6.34-3.78-9.45-10-9.45-3.45 0-6.34 0.94-9.12 2.33l-0.67-1.56c3.12-1.5 6.17-2.44 9.9-2.44 3.83 0 6.84 1 8.89 3.06 1.78 1.83 2.78 4.5 2.78 7.95v17.45h-1.78v-5.83c-1.44 3.05-5.33 6.5-11.78 6.5-5.4 0-10.62-2.89-10.62-8.56zm22.46-2.45v-3.44c-2.72-0.89-5.95-1.56-10.12-1.56-6.17 0-10.45 2.61-10.45 7.23v0.11c0 4.61 4.17 7 8.84 7 6.78 0 11.73-4.33 11.73-9.34z"/>
			<path id="&lt;Compound Path&gt;" fill-rule="evenodd" class="s6" d="m-15.69 615.59l1.05-1.45c3.51 2.67 7.4 4.06 11.74 4.06 7.06 0 11.84-4 11.84-11.84v-5.06c-2.17 4.28-6.56 7.51-12.23 7.51-7.29 0-13.68-5.67-13.68-13.23v-0.12c0-7.61 6.39-13.28 13.68-13.28 5.67 0 10.06 3.22 12.23 7.39v-6.73h1.83v23.74c0 4.12-1.33 7.4-3.61 9.68-2.39 2.39-5.95 3.67-10.06 3.67-4.73 0-8.96-1.45-12.79-4.34zm24.79-20.01v-0.12c0-6.5-5.72-11.56-12.23-11.56-6.56 0-11.89 4.89-11.89 11.51v0.11c0 6.5 5.39 11.56 11.89 11.56 6.51 0 12.23-5 12.23-11.5z"/>
			<path id="&lt;Compound Path&gt;" class="s6" d="m32.56 570.28h1.84v40.58h-1.84z"/>
			<path id="&lt;Compound Path&gt;" class="s6" d="m56.24 571.72h2.39v3.4h-2.39zm0.28 11.12h1.84v28.02h-1.84z"/>
			<path id="&lt;Compound Path&gt;" class="s6" d="m80.15 582.84h1.78v6.67c1.28-3.33 4.78-7.33 10.78-7.33 7.4 0 11.57 5 11.57 12.28v16.4h-1.78v-16.12c0-6.5-3.5-10.9-10.01-10.9-5.89 0-10.56 4.84-10.56 11.23v15.79h-1.78z"/>
			<path id="&lt;Compound Path&gt;" fill-rule="evenodd" class="s6" d="m123.23 596.85v-0.11c0-8.23 5.67-14.56 13.4-14.56 8.45 0 12.84 7.22 12.84 14.73v0.61h-24.29c0.33 7.62 5.72 12.34 12.01 12.34 4.33 0 7.83-2.28 10.06-5.17l1.33 1.06c-2.55 3.33-6.33 5.78-11.45 5.78-7.56 0-13.9-5.73-13.9-14.68zm24.3-0.94c-0.28-6.12-4.01-12.07-11.01-12.07-6.34 0-11.01 5.17-11.34 12.07z"/>
			<path id="&lt;Compound Path&gt;" fill-rule="evenodd" class="s6" d="m195.28 615.59l1.06-1.45c3.5 2.67 7.39 4.06 11.73 4.06 7.06 0 11.84-4 11.84-11.84v-5.06c-2.17 4.28-6.56 7.51-12.23 7.51-7.29 0-13.68-5.67-13.68-13.23v-0.12c0-7.61 6.39-13.28 13.68-13.28 5.67 0 10.06 3.22 12.23 7.39v-6.73h1.83v23.74c0 4.12-1.33 7.4-3.61 9.68-2.39 2.39-5.95 3.67-10.06 3.67-4.73 0-8.95-1.45-12.79-4.34zm24.79-20.01v-0.12c0-6.5-5.72-11.56-12.23-11.56-6.56 0-11.89 4.89-11.89 11.51v0.11c0 6.5 5.39 11.56 11.89 11.56 6.51 0 12.23-5 12.23-11.5z"/>
			<path id="&lt;Compound Path&gt;" fill-rule="evenodd" class="s6" d="m241.2 596.96v-0.11c0-7.84 5.95-14.67 14.56-14.67 8.57 0 14.46 6.72 14.46 14.56v0.11c0 7.84-5.89 14.68-14.51 14.68-8.56 0-14.51-6.73-14.51-14.57zm27.13-0.05v-0.11c0-7.06-5.39-12.96-12.68-12.96-7.39 0-12.51 5.9-12.51 12.96v0.11c0 7.06 5.34 12.95 12.62 12.95 7.4 0 12.57-5.89 12.57-12.95z"/>
			<path id="&lt;Compound Path&gt;" fill-rule="evenodd" class="s6" d="m287.73 596.85v-0.11c0-8.23 5.67-14.56 13.4-14.56 8.45 0 12.84 7.22 12.84 14.73v0.61h-24.29c0.33 7.62 5.72 12.34 12 12.34 4.34 0 7.84-2.28 10.07-5.17l1.33 1.06c-2.56 3.33-6.34 5.78-11.45 5.78-7.56 0-13.9-5.73-13.9-14.68zm24.29-0.94c-0.27-6.12-4-12.07-11-12.07-6.34 0-11.01 5.17-11.34 12.07z"/>
			<path id="&lt;Compound Path&gt;" class="s6" d="m330.59 607.25l1.06-1.39c3.11 2.45 6.83 3.84 10.45 3.84 4.5 0 8-2.39 8-5.84v-0.11c0-3.95-4.22-5.17-8.5-6.34-5.23-1.5-9.73-2.95-9.73-7.62v-0.11c0-4.17 3.83-7.34 9.56-7.34 3.22 0 6.89 1.11 9.84 3.12l-1 1.5c-2.67-1.89-5.95-2.95-8.89-2.95-4.62 0-7.68 2.39-7.68 5.5v0.12c0 3.5 3.95 4.78 8.51 6.06 5.11 1.39 9.73 3 9.73 7.89v0.11c0 4.62-4.34 7.67-9.95 7.67-4.01 0-8.34-1.55-11.4-4.11z"/>
			<path id="&lt;Compound Path&gt;" class="s6" d="m398.86 570.28h1.78v19.23c1.28-3.33 4.78-7.33 10.78-7.33 7.4 0 11.57 5 11.57 12.28v16.4h-1.78v-16.12c0-6.5-3.51-10.9-10.01-10.9-5.89 0-10.56 4.84-10.56 11.23v15.79h-1.78z"/>
			<path id="&lt;Compound Path&gt;" fill-rule="evenodd" class="s6" d="m441.94 596.85v-0.11c0-8.23 5.67-14.56 13.4-14.56 8.45 0 12.84 7.22 12.84 14.73v0.61h-24.29c0.33 7.62 5.72 12.34 12.01 12.34 4.33 0 7.83-2.28 10.06-5.17l1.33 1.06c-2.56 3.33-6.34 5.78-11.45 5.78-7.56 0-13.9-5.73-13.9-14.68zm24.3-0.94c-0.28-6.12-4.01-12.07-11.01-12.07-6.34 0-11.01 5.17-11.34 12.07z"/>
			<path id="&lt;Compound Path&gt;" class="s6" d="m487.42 582.84h1.78v8.57c1.66-4.79 5.94-9.29 11.89-9.12v1.83h-0.28c-6.78 0-11.61 6.56-11.61 13.46v13.28h-1.78z"/>
			<path id="&lt;Compound Path&gt;" fill-rule="evenodd" class="s6" d="m515.27 596.85v-0.11c0-8.23 5.67-14.56 13.4-14.56 8.45 0 12.84 7.22 12.84 14.73v0.61h-24.3c0.34 7.62 5.73 12.34 12.01 12.34 4.34 0 7.84-2.28 10.06-5.17l1.34 1.06c-2.56 3.33-6.34 5.78-11.45 5.78-7.56 0-13.9-5.73-13.9-14.68zm24.29-0.94c-0.28-6.12-4-12.07-11-12.07-6.34 0-11.01 5.17-11.35 12.07z"/>
		</g>
	</g>
</svg>