<svg version="1.2" xmlns="http://www.w3.org/2000/svg" viewBox="0 0 50 40" width="50" height="40">
	<defs>
		<linearGradient id="g1" x2="1" gradientUnits="userSpaceOnUse" gradientTransform="matrix(12.552,3.219,-1.462,5.7,11.601,13.954)">
			<stop offset="0" stop-color="#2aa5de"/>
			<stop offset=".539" stop-color="#2177b8"/>
			<stop offset="1" stop-color="#29418f"/>
		</linearGradient>
		<linearGradient id="g2" x2="1" gradientUnits="userSpaceOnUse" gradientTransform="matrix(19.581,0,0,8.986,15.373,9.794)">
			<stop offset="0" stop-color="#2aa5de"/>
			<stop offset=".539" stop-color="#2177b8"/>
			<stop offset="1" stop-color="#29418f"/>
		</linearGradient>
	</defs>
	<style>
		.s0 { fill: url(#g1) } 
		.s1 { fill: url(#g2) } 
		.s2 { fill: #2a3d8f } 
	</style>
	<g id="_Artboards_">
	</g>
	<g id="Layer 2">
		<g id="&lt;Group&gt;">
			<path id="&lt;Path&gt;" class="s0" d="m25.54 22.69c0 0-4.13 0.34-6.43-1.24-2.3-1.58-4.9-4.05-6.73-3.68 0 0 4.2 3.72 3.31 4.71-0.11 0.13-0.7 0.33-1.07 0.44q-0.28 0.09-0.45 0.33l-0.08 0.11c-0.19 0.29-0.2 0.66-0.01 0.95 0.18 0.28 0.5 0.42 0.83 0.38 1.97-0.28 8.75-1.26 10.63-2z"/>
			<g id="&lt;Group&gt;">
				<path id="&lt;Path&gt;" class="s1" d="m16.38 18.78c0.6-4.45 4.41-7.89 9.03-7.89 3.7 0 6.89 2.22 8.31 5.4q0.18-0.01 0.33-0.01h0.01q0.47 0 0.89 0.11c-1.45-3.85-5.18-6.6-9.54-6.6-5 0-9.15 3.59-10.04 8.33q0.5 0.3 1.01 0.66z"/>
				<path id="&lt;Path&gt;" class="s2" d="m34.47 20.89c-0.45 4.61-4.34 8.22-9.06 8.22-3.26 0-6.12-1.71-7.73-4.28q-0.62 0.09-1.17 0.17c1.75 3.11 5.08 5.21 8.9 5.21 5.45 0 9.91-4.29 10.19-9.67q-0.5 0.16-1.13 0.35z"/>
			</g>
			<path id="&lt;Compound Path&gt;" fill-rule="evenodd" class="s2" d="m30.8 21.3c-0.74 0.18-4.46 0.81-4.46 0.81q-1.46 0.2-2.91-0.03c-1.21-0.2-2.81-0.57-3.95-1.24 0 0 2.63-0.71 6.27-1.72 0.72 0.82 1.98 1.98 1.98 1.98 0.02-0.04-1.29-1.64-2.75-3.43l-1.06 0.49c-0.25 0.12-0.55 0.01-0.67-0.24-0.11-0.25-0.01-0.55 0.24-0.66l0.84-0.39c-1.71-2.11-3.39-4.22-3.21-4.26 0.36-0.06 5.73 4.64 7.34 5.79l0.9 0.66-0.57-0.78c0 0 3.67-1.47 5.27-1.47 0.46 0.01 0.93 0.13 1.36 0.27 0 0-0.62 0.14-1.1 0.47q-0.13 0.1-0.11 0.27c0.02 0.08 0.1 0.13 0.18 0.12l2.09-0.39c0.51 0.29 0.9 0.62 1.08 0.92 0.49 0.84-1.82 1.61-6.76 2.83zm-0.55-1.24l-0.06-0.36-0.27 0.07 0.06 0.36zm0.49-0.13l-0.06-0.36-0.27 0.07 0.07 0.36zm0.49-0.13l-0.07-0.35-0.27 0.07 0.07 0.35zm0.49-0.12l-0.06-0.36-0.27 0.07 0.06 0.35zm0.49-0.12l-0.06-0.36-0.27 0.07 0.06 0.36zm0.49-0.13l-0.06-0.35-0.27 0.07 0.06 0.35zm0.49-0.12l-0.06-0.36-0.27 0.07 0.06 0.35zm0.5-0.12l-0.07-0.36-0.27 0.07 0.07 0.36zm0.49-0.13l-0.06-0.35-0.27 0.07 0.06 0.35zm0.49-0.13l-0.06-0.35-0.27 0.07 0.06 0.35zm0.49-0.12l-0.06-0.36-0.27 0.07 0.06 0.36zm0.49-0.13l-0.06-0.35-0.27 0.07 0.06 0.35z"/>
		</g>
	</g>
</svg>